# xmcd
# 
# Track frame offsets:
#     150
#     18834
#     34991
#     50207
#     65353
#     89127
#     106760
#     125193
#     145548
#     163433
#     181850
#     199067
#     217574
#     237347
#     250790
#     265518
# 
# Disc length: 3754
# 
# Revision: 1
# Processed by: cddbd v1.5.2PL0 Copyright (c) Steve Scherf et al.
# Submitted via: BonkEnc v1.0
# 
DISCID=e10ea810
DTITLE=gauchas vol 04 - a marca do sul
DYEAR=0
DGENRE=gauchas
TTITLE0=grupo minuano - reencontro
TTITLE1=joao luiz correa - fandango em soledade
TTITLE2=tche garotos - to voltando pra ficar
TTITLE3=oswaldir e c magrao - outras fronteiras
TTITLE4=xiru missioneiro - corpo esgualepado
TTITLE5=chiquito e bordoneio - da estancia pra venda
TTITLE6=tche barbaridade - vida de gaucho
TTITLE7=cesar passarinho - negro de 35
TTITLE8=candeeiro - todo mundo veio pro rodeio
TTITLE9=leonardo - viva a bombacha
TTITLE10=os farrapos - chiquitita
TTITLE11=quero quero - pe no estribo
TTITLE12=os mateadores - baile das negra touro
TTITLE13=pala velho - buenas tche
TTITLE14=os tiranos - rodeio da saudade
TTITLE15=fogo de chao - estradeiro
EXTD=uma seleção das algumas musicas gauchas conhecidas em nossos pampas.
EXTT0=
EXTT1=
EXTT2=
EXTT3=
EXTT4=
EXTT5=
EXTT6=
EXTT7=
EXTT8=
EXTT9=
EXTT10=
EXTT11=
EXTT12=
EXTT13=
EXTT14=
EXTT15=
PLAYORDER=
